<svg width="50" height="49" viewBox="0 0 50 49" fill="none" xmlns="http://www.w3.org/2000/svg">
<g id="flower 1" clip-path="url(#clip0_12_343)">
<g id="Group">
<path id="Vector" d="M36.7829 15.3143V7.65842C36.7829 6.81284 36.0971 6.12726 35.251 6.12726H33.719V1.53375C33.719 0.68816 33.0332 0.0025787 32.187 0.0025787C30.0182 0.0025787 26.6967 -0.163553 22.7976 2.1711C20.3739 1.45001 18.6597 1.53375 16.8674 1.53375C16.0213 1.53375 15.3354 2.21933 15.3354 3.06492V6.12726H13.8035C12.9573 6.12726 12.2715 6.81284 12.2715 7.65842V15.3143C12.2715 21.5501 16.9579 26.7123 22.9952 27.4681V47.4688C22.9952 48.3144 23.6811 49 24.5272 49C25.3733 49 26.0592 48.3144 26.0592 47.4688V42.1097H28.3571C33.0031 42.1097 36.7829 38.3319 36.7829 33.6883V31.3915C36.7829 30.546 36.0971 29.8604 35.251 29.8604H31.4211C29.3859 29.8604 27.517 30.5853 26.0592 31.7903V27.4674C32.0876 26.7212 36.7829 21.5847 36.7829 15.3143ZM33.719 15.3143C33.719 18.0393 32.5133 20.5004 30.6076 22.1879C30.6377 21.9422 30.6551 21.6926 30.6551 21.4389C30.6551 17.5614 29.2047 14.0165 26.8187 11.3159C28.8415 9.93633 31.2399 9.18959 33.719 9.18959V15.3143ZM30.6551 3.06492V6.43617C30.372 6.49378 30.0908 6.55952 29.812 6.63292C28.8182 5.52101 27.6847 4.57369 26.4472 3.8082C27.7848 3.31938 29.2049 3.06492 30.6551 3.06492ZM18.3994 4.59609C21.4429 4.59609 24.3985 5.70685 26.6972 7.82915C25.9385 8.22046 25.2111 8.67665 24.5227 9.1939C22.7415 7.85547 20.6602 6.89562 18.3994 6.43512V4.59609ZM15.3354 15.3143V9.18959C22.0932 9.18959 27.5911 14.6846 27.5911 21.4389C27.5911 23.15 26.1774 24.5443 24.4467 24.4998C19.0647 24.367 15.3354 20.0933 15.3354 15.3143ZM31.4211 32.9227H33.719V33.6883C33.719 36.6433 31.3137 39.0474 28.3571 39.0474H26.0592V38.2818C26.0592 35.3268 28.4646 32.9227 31.4211 32.9227Z" fill="white"/>
</g>
</g>
<defs>
<clipPath id="clip0_12_343">
<rect width="49.0255" height="49" fill="white" transform="translate(0.0144043)"/>
</clipPath>
</defs>
</svg>
